HIERARCHY
ROOT Hips
{
  OFFSET -0.078 41.277 -228.955
  CHANNELS 6 Xposition Yposition Zposition Zrotation Xrotation Yrotation
  JOINT LeftUpLeg
  {
    OFFSET 7.168 -5.227 4.430
    CHANNELS 6 Xposition Yposition Zposition Zrotation Xrotation Yrotation
    JOINT LeftLeg
    {
      OFFSET -0.000 -44.618 0.000
      CHANNELS 6 Xposition Yposition Zposition Zrotation Xrotation Yrotation
      JOINT LeftFoot
      {
        OFFSET -0.000 -38.510 -0.000
        CHANNELS 6 Xposition Yposition Zposition Zrotation Xrotation Yrotation
        End Site
        {
          OFFSET 0.000 -9.490 5.479
        }
      }
    }
  }
  JOINT RightUpLeg
  {
    OFFSET -7.085 -5.419 4.527
    CHANNELS 6 Xposition Yposition Zposition Zrotation Xrotation Yrotation
    JOINT RightLeg
    {
      OFFSET -0.000 -44.646 0.000
      CHANNELS 6 Xposition Yposition Zposition Zrotation Xrotation Yrotation
      JOINT RightFoot
      {
        OFFSET -0.000 -38.439 -0.000
        CHANNELS 6 Xposition Yposition Zposition Zrotation Xrotation Yrotation
        End Site
        {
          OFFSET 0.000 -8.933 5.158
        }
      }
    }
  }
  JOINT Spine
  {
    OFFSET 0.000 4.666 -4.666
    CHANNELS 6 Xposition Yposition Zposition Zrotation Xrotation Yrotation
    JOINT LeftShoulder
    {
      OFFSET -0.000 36.302 0.000
      CHANNELS 6 Xposition Yposition Zposition Zrotation Xrotation Yrotation
      JOINT LeftArm
      {
        OFFSET 19.155 0.000 -0.000
        CHANNELS 6 Xposition Yposition Zposition Zrotation Xrotation Yrotation
        JOINT LeftForeArm
        {
          OFFSET 24.602 0.000 0.000
          CHANNELS 6 Xposition Yposition Zposition Zrotation Xrotation Yrotation
          JOINT LeftHand
          {
            OFFSET 25.100 0.000 -0.000
            CHANNELS 6 Xposition Yposition Zposition Zrotation Xrotation Yrotation
            JOINT LeftHandThumb1
            {
            OFFSET 4.970 -0.620 3.390
            CHANNELS 6 Xposition Yposition Zposition Zrotation Xrotation Yrotation
              JOINT LeftHandThumb2
              {
              OFFSET 2.150 -0.000 0.000
              CHANNELS 6 Xposition Yposition Zposition Zrotation Xrotation Yrotation
                JOINT LeftHandThumb3
                {
                OFFSET 2.200 -0.000 0.000
                CHANNELS 6 Xposition Yposition Zposition Zrotation Xrotation Yrotation
                  JOINT LeftHandThumb4
                  {
                  OFFSET 1.700 -0.000 0.000
                  CHANNELS 6 Xposition Yposition Zposition Zrotation Xrotation Yrotation
                  }
                }
              }
            }
            JOINT LeftHandIndex1
            {
            OFFSET 8.730 0.680 2.070
            CHANNELS 6 Xposition Yposition Zposition Zrotation Xrotation Yrotation
              JOINT LeftHandIndex2
              {
              OFFSET 2.670 -0.000 0.000
              CHANNELS 6 Xposition Yposition Zposition Zrotation Xrotation Yrotation
                JOINT LeftHandIndex3
                {
                OFFSET 2.130 -0.000 0.000
                CHANNELS 6 Xposition Yposition Zposition Zrotation Xrotation Yrotation
                  JOINT LeftHandIndex4
                  {
                  OFFSET 1.800 -0.000 0.000
                  CHANNELS 6 Xposition Yposition Zposition Zrotation Xrotation Yrotation
                  }
                }
              }
            }
            JOINT LeftHandMiddle1
            {
            OFFSET 9.220 0.670 0.550
            CHANNELS 6 Xposition Yposition Zposition Zrotation Xrotation Yrotation
              JOINT LeftHandMiddle2
              {
              OFFSET 2.660 -0.000 0.000
              CHANNELS 6 Xposition Yposition Zposition Zrotation Xrotation Yrotation
                JOINT LeftHandMiddle3
                {
                OFFSET 2.280 -0.000 0.000
                CHANNELS 6 Xposition Yposition Zposition Zrotation Xrotation Yrotation
                  JOINT LeftHandMiddle4
                  {
                  OFFSET 1.500 -0.000 0.000
                  CHANNELS 6 Xposition Yposition Zposition Zrotation Xrotation Yrotation
                  }
                }
              }
            }
            JOINT LeftHandRing1
            {
            OFFSET 9.250 0.670 -1.130
            CHANNELS 6 Xposition Yposition Zposition Zrotation Xrotation Yrotation
              JOINT LeftHandRing2
              {
              OFFSET 2.470 -0.000 0.000
              CHANNELS 6 Xposition Yposition Zposition Zrotation Xrotation Yrotation
                JOINT LeftHandRing3
                {
                OFFSET 2.210 -0.000 0.000
                CHANNELS 6 Xposition Yposition Zposition Zrotation Xrotation Yrotation
                  JOINT LeftHandRing4
                  {
                  OFFSET 1.800 -0.000 0.000
                  CHANNELS 6 Xposition Yposition Zposition Zrotation Xrotation Yrotation
                  }
                }
              }
            }
            JOINT LeftHandPinky1
            {
            OFFSET 9.350 0.660 -2.720
            CHANNELS 6 Xposition Yposition Zposition Zrotation Xrotation Yrotation
              JOINT LeftHandPinky2
              {
              OFFSET 1.630 -0.000 0.000
              CHANNELS 6 Xposition Yposition Zposition Zrotation Xrotation Yrotation
                JOINT LeftHandPinky3
                {
                OFFSET 1.710 -0.000 0.000
                CHANNELS 6 Xposition Yposition Zposition Zrotation Xrotation Yrotation
                  JOINT LeftHandPinky4
                  {
                  OFFSET 1.800 -0.000 0.000
                  CHANNELS 6 Xposition Yposition Zposition Zrotation Xrotation Yrotation
                  }
                }
              }
            }
          }
        }
      }
    }
    JOINT RightShoulder
    {
      OFFSET -0.000 36.302 0.000
      CHANNELS 6 Xposition Yposition Zposition Zrotation Xrotation Yrotation
      JOINT RightArm
      {
        OFFSET -20.161 0.000 -0.000
        CHANNELS 6 Xposition Yposition Zposition Zrotation Xrotation Yrotation
        JOINT RightForeArm
        {
          OFFSET -25.319 0.000 0.000
          CHANNELS 6 Xposition Yposition Zposition Zrotation Xrotation Yrotation
          JOINT RightHand
          {
            OFFSET -25.618 0.000 -0.000
            CHANNELS 6 Xposition Yposition Zposition Zrotation Xrotation Yrotation
            JOINT RightHandThumb1
            {
            OFFSET -4.970 -0.620 3.390
            CHANNELS 6 Xposition Yposition Zposition Zrotation Xrotation Yrotation
              JOINT RightHandThumb2
              {
              OFFSET -2.150 0.000 0.000
              CHANNELS 6 Xposition Yposition Zposition Zrotation Xrotation Yrotation
                JOINT RightHandThumb3
                {
                OFFSET -2.200 0.000 0.000
                CHANNELS 6 Xposition Yposition Zposition Zrotation Xrotation Yrotation
                  JOINT RightHandThumb4
                  {
                  OFFSET -1.700 0.000 0.000
                  CHANNELS 6 Xposition Yposition Zposition Zrotation Xrotation Yrotation
                  }
                }
              }
            }
            JOINT RightHandIndex1
            {
            OFFSET -8.730 0.680 2.070
            CHANNELS 6 Xposition Yposition Zposition Zrotation Xrotation Yrotation
              JOINT RightHandIndex2
              {
              OFFSET -2.670 0.000 0.000
              CHANNELS 6 Xposition Yposition Zposition Zrotation Xrotation Yrotation
                JOINT RightHandIndex3
                {
                OFFSET -2.130 0.000 0.000
                CHANNELS 6 Xposition Yposition Zposition Zrotation Xrotation Yrotation
                  JOINT RightHandIndex4
                  {
                  OFFSET -1.800 0.000 0.000
                  CHANNELS 6 Xposition Yposition Zposition Zrotation Xrotation Yrotation
                  }
                }
              }
            }
            JOINT RightHandMiddle1
            {
            OFFSET -9.220 0.670 0.550
            CHANNELS 6 Xposition Yposition Zposition Zrotation Xrotation Yrotation
              JOINT RightHandMiddle2
              {
              OFFSET -2.660 0.000 0.000
              CHANNELS 6 Xposition Yposition Zposition Zrotation Xrotation Yrotation
                JOINT RightHandMiddle3
                {
                OFFSET -2.280 0.000 0.000
                CHANNELS 6 Xposition Yposition Zposition Zrotation Xrotation Yrotation
                  JOINT RightHandMiddle4
                  {
                  OFFSET -1.500 0.000 0.000
                  CHANNELS 6 Xposition Yposition Zposition Zrotation Xrotation Yrotation
                  }
                }
              }
            }
            JOINT RightHandRing1
            {
            OFFSET -9.250 0.670 -1.130
            CHANNELS 6 Xposition Yposition Zposition Zrotation Xrotation Yrotation
              JOINT RightHandRing2
              {
              OFFSET -2.470 0.000 0.000
              CHANNELS 6 Xposition Yposition Zposition Zrotation Xrotation Yrotation
                JOINT RightHandRing3
                {
                OFFSET -2.210 0.000 0.000
                CHANNELS 6 Xposition Yposition Zposition Zrotation Xrotation Yrotation
                  JOINT RightHandRing4
                  {
                  OFFSET -1.800 0.000 0.000
                  CHANNELS 6 Xposition Yposition Zposition Zrotation Xrotation Yrotation
                  }
                }
              }
            }
            JOINT RightHandPinky1
            {
            OFFSET -9.350 0.660 -2.720
            CHANNELS 6 Xposition Yposition Zposition Zrotation Xrotation Yrotation
              JOINT RightHandPinky2
              {
              OFFSET -1.630 0.000 0.000
              CHANNELS 6 Xposition Yposition Zposition Zrotation Xrotation Yrotation
                JOINT RightHandPinky3
                {
                OFFSET -1.710 0.000 0.000
                CHANNELS 6 Xposition Yposition Zposition Zrotation Xrotation Yrotation
                  JOINT RightHandPinky4
                  {
                  OFFSET -1.800 0.000 0.000
                  CHANNELS 6 Xposition Yposition Zposition Zrotation Xrotation Yrotation
                  }
                }
              }
            }
          }
        }
      }
    }
    JOINT Neck
    {
      OFFSET -0.000 36.302 0.000
      CHANNELS 6 Xposition Yposition Zposition Zrotation Xrotation Yrotation
      JOINT Head
      {
        OFFSET -0.000 13.026 -0.000
        CHANNELS 6 Xposition Yposition Zposition Zrotation Xrotation Yrotation
        End Site
        {
          OFFSET -0.000 0.052 -0.000
        }
      }
    }
  }
}
MOTION
Frames:	6
Frame Time:	0.0333333
1.84824 40.1928 -233.511 -1.07143 7.94796 0.550162 7.32341 -7.07255 2.51379 5.17644 6.15229 -4.02393 -7.45058e-07 -46.2625 9.53674e-05 -5.94104 -4.93272 -0.512669 3.25963e-06 -38.1123 2.38419e-05 8.02698 -18.3377 6.96903 -7.36135 -7.10277 1.61846 -4.28456 3.63648 -3.21368 0 -46.3187 2.38419e-05 6.31854 -1.52382 0.16871 -1.49012e-06 -37.0365 4.76837e-05 -0.176182 -8.13524 -0.12457 1.11759e-06 6.28702 -6.287 -0.149713 -8.30594 0.175846 -3.72529e-06 36.3015 2.38419e-05 -29.848 1.18995e-05 -6.69103 19.5901 1.19209e-05 -2.38419e-05 -47.6829 23.2391 7.95171 26.0791 1.19209e-05 7.15256e-05 3.91766e-06 -1.70755e-06 -26.2508 24.4657 -1.78814e-05 -2.38419e-05 -4.82888 -0.0150516 -0.0633491 0.0062 0.0497 0.0339 0 0 0 0 0.0215 0 0 0 0 0 0.022 0 0 0 0 0 0.017 0 0 0 0 -0.0068 0.0873 0.0207 0 0 0 0 0.0267 0 0 0 0 0 0.0213 0 0 0 0 0 0.018 0 0 0 0 -0.0067 0.0922 0.0055 0 0 0 0 0.0266 0 0 0 0 0 0.0228 0 0 0 0 0 0.015 0 0 0 0 -0.0067 0.0925 -0.0113 0 0 0 0 0.0247 0 0 0 0 0 0.0221 0 0 0 0 0 0.018 0 0 0 0 -0.0066 0.0935 -0.0272 0 0 0 0 0.0163 0 0 0 0 0 0.0171 0 0 0 0 0 0.018 0 0 0 0 -3.72529e-06 36.3015 2.38419e-05 31.9377 -3.41509e-06 6.93985 -18.8909 0 2.38419e-05 46.2774 26.3551 -6.41816 -27.2075 0 -4.76837e-05 9.35695e-07 0 24.154 -25.2185 2.38419e-05 4.76837e-05 5.13177 -0.00117479 -1.05975 -0.0062 0.0497 0.0339 0 0 0 0 0.0215 0 0 0 0 0 0.022 0 0 0 0 0 0.017 0 0 0 0 0.0068 0.0873 0.0207 0 0 0 0 0.0267 0 0 0 0 0 0.0213 0 0 0 0 0 0.018 0 0 0 0 0.0067 0.0922 0.0055 0 0 0 0 0.0266 0 0 0 0 0 0.0228 0 0 0 0 0 0.015 0 0 0 0 0.0067 0.0925 -0.0113 0 0 0 0 0.0247 0 0 0 0 0 0.0221 0 0 0 0 0 0.018 0 0 0 0 0.0066 0.0935 -0.0272 0 0 0 0 0.0163 0 0 0 0 0 0.0171 0 0 0 0 0 0.018 0 0 0 0 -3.72529e-06 36.3015 2.38419e-05 3.86228 47.7692 -2.86175 -2.14204e-06 19.5179 0 9.8184e-06 -1.19528e-05 5.33609e-08 
1.93384 40.2633 -233.69 -0.934963 7.94521 0.662841 7.33934 -7.09656 2.48921 4.99248 5.94212 -3.87563 -2.23517e-06 -46.3042 0 -6.02157 -4.76936 -0.502501 1.86265e-07 -38.0872 0 8.05279 -18.4795 7.00652 -7.38335 -7.11558 1.62151 -4.44888 3.48276 -3.10277 2.98023e-06 -46.3777 -2.38419e-05 6.32756 -1.53597 0.170299 2.98023e-06 -37.0841 4.76837e-05 -0.228055 -7.99321 -0.161059 7.45058e-07 6.28614 -6.28619 -0.188986 -8.14354 0.180957 -3.72529e-06 36.3015 4.76837e-05 -29.5967 1.24864e-05 -6.47231 19.6482 0 -2.38419e-05 -48.4097 23.5298 7.83732 26.2083 0 2.38419e-05 -9.46184e-06 -1.19528e-05 -25.4198 24.0246 5.96046e-06 0 -5.02826 -0.00907869 -0.365555 0.0062 0.0497 0.0339 0 0 0 0 0.0215 0 0 0 0 0 0.022 0 0 0 0 0 0.017 0 0 0 0 -0.0068 0.0873 0.0207 0 0 0 0 0.0267 0 0 0 0 0 0.0213 0 0 0 0 0 0.018 0 0 0 0 -0.0067 0.0922 0.0055 0 0 0 0 0.0266 0 0 0 0 0 0.0228 0 0 0 0 0 0.015 0 0 0 0 -0.0067 0.0925 -0.0113 0 0 0 0 0.0247 0 0 0 0 0 0.0221 0 0 0 0 0 0.018 0 0 0 0 -0.0066 0.0935 -0.0272 0 0 0 0 0.0163 0 0 0 0 0 0.0171 0 0 0 0 0 0.018 0 0 0 0 -3.72529e-06 36.3015 4.76837e-05 31.8766 -3.36173e-06 6.73192 -18.8938 5.96046e-06 -7.15256e-05 46.4132 26.9073 -6.3525 -27.1358 5.96046e-06 4.76837e-05 -2.97374e-08 8.53774e-06 23.7776 -25.1633 0 0 5.45156 0.000391036 -0.906512 -0.0062 0.0497 0.0339 0 0 0 0 0.0215 0 0 0 0 0 0.022 0 0 0 0 0 0.017 0 0 0 0 0.0068 0.0873 0.0207 0 0 0 0 0.0267 0 0 0 0 0 0.0213 0 0 0 0 0 0.018 0 0 0 0 0.0067 0.0922 0.0055 0 0 0 0 0.0266 0 0 0 0 0 0.0228 0 0 0 0 0 0.015 0 0 0 0 0.0067 0.0925 -0.0113 0 0 0 0 0.0247 0 0 0 0 0 0.0221 0 0 0 0 0 0.018 0 0 0 0 0.0066 0.0935 -0.0272 0 0 0 0 0.0163 0 0 0 0 0 0.0171 0 0 0 0 0 0.018 0 0 0 0 -3.72529e-06 36.3015 4.76837e-05 3.54249 47.7131 -2.62219 -1.58325e-06 19.509 -2.38419e-05 9.92512e-06 -5.12264e-06 0 
1.93384 40.2633 -233.69 -0.934963 7.94521 0.662841 7.33934 -7.09656 2.48921 4.99248 5.94212 -3.87563 -2.23517e-06 -46.3042 0 -6.02157 -4.76936 -0.502501 1.86265e-07 -38.0872 0 8.05279 -18.4795 7.00652 -7.38335 -7.11558 1.62151 -4.44888 3.48276 -3.10277 2.98023e-06 -46.3777 -2.38419e-05 6.32756 -1.53597 0.170299 2.98023e-06 -37.0841 4.76837e-05 -0.228055 -7.99321 -0.161059 7.45058e-07 6.28614 -6.28619 -0.188986 -8.14354 0.180957 -3.72529e-06 36.3015 4.76837e-05 -29.5967 1.24864e-05 -6.47231 19.6482 0 -2.38419e-05 -48.4097 23.5298 7.83732 26.2083 0 2.38419e-05 -9.46184e-06 -1.19528e-05 -25.4198 24.0246 5.96046e-06 0 -5.02826 -0.00907869 -0.365555 0.0062 0.0497 0.0339 0 0 0 0 0.0215 0 0 0 0 0 0.022 0 0 0 0 0 0.017 0 0 0 0 -0.0068 0.0873 0.0207 0 0 0 0 0.0267 0 0 0 0 0 0.0213 0 0 0 0 0 0.018 0 0 0 0 -0.0067 0.0922 0.0055 0 0 0 0 0.0266 0 0 0 0 0 0.0228 0 0 0 0 0 0.015 0 0 0 0 -0.0067 0.0925 -0.0113 0 0 0 0 0.0247 0 0 0 0 0 0.0221 0 0 0 0 0 0.018 0 0 0 0 -0.0066 0.0935 -0.0272 0 0 0 0 0.0163 0 0 0 0 0 0.0171 0 0 0 0 0 0.018 0 0 0 0 -3.72529e-06 36.3015 4.76837e-05 31.8766 -3.36173e-06 6.73192 -18.8938 5.96046e-06 -7.15256e-05 46.4132 26.9073 -6.3525 -27.1358 5.96046e-06 4.76837e-05 -2.97374e-08 8.53774e-06 23.7776 -25.1633 0 0 5.45156 0.000391036 -0.906512 -0.0062 0.0497 0.0339 0 0 0 0 0.0215 0 0 0 0 0 0.022 0 0 0 0 0 0.017 0 0 0 0 0.0068 0.0873 0.0207 0 0 0 0 0.0267 0 0 0 0 0 0.0213 0 0 0 0 0 0.018 0 0 0 0 0.0067 0.0922 0.0055 0 0 0 0 0.0266 0 0 0 0 0 0.0228 0 0 0 0 0 0.015 0 0 0 0 0.0067 0.0925 -0.0113 0 0 0 0 0.0247 0 0 0 0 0 0.0221 0 0 0 0 0 0.018 0 0 0 0 0.0066 0.0935 -0.0272 0 0 0 0 0.0163 0 0 0 0 0 0.0171 0 0 0 0 0 0.018 0 0 0 0 -3.72529e-06 36.3015 4.76837e-05 3.54249 47.7131 -2.62219 -1.58325e-06 19.509 -2.38419e-05 9.92512e-06 -5.12264e-06 0 
2.01426 40.3056 -233.83 -0.847919 7.97101 0.744276 7.34715 -7.11058 2.48084 4.88061 5.78631 -3.84265 0 -46.3551 -7.15256e-05 -6.11044 -4.71894 -0.504593 -1.67638e-06 -38.0592 2.38419e-05 8.06049 -18.6196 7.02801 -7.39128 -7.12108 1.61533 -4.58554 3.34564 -3.09613 0 -46.461 0 6.38328 -1.57765 0.176472 -1.49012e-06 -37.1111 4.76837e-05 -0.293132 -7.87545 -0.206486 1.49012e-06 6.28707 -6.28705 -0.20598 -8.04518 0.171455 -4.47035e-06 36.3015 -2.38419e-05 -29.5054 1.286e-05 -6.38485 19.677 0 0 -48.8067 23.5273 7.80597 26.3017 0 -2.38419e-05 -9.42451e-07 0 -25.0542 23.7636 -2.38419e-05 0 -5.21192 -0.00634086 -0.539251 0.0062 0.0497 0.0339 0 0 0 0 0.0215 0 0 0 0 0 0.022 0 0 0 0 0 0.017 0 0 0 0 -0.0068 0.0873 0.0207 0 0 0 0 0.0267 0 0 0 0 0 0.0213 0 0 0 0 0 0.018 0 0 0 0 -0.0067 0.0922 0.0055 0 0 0 0 0.0266 0 0 0 0 0 0.0228 0 0 0 0 0 0.015 0 0 0 0 -0.0067 0.0925 -0.0113 0 0 0 0 0.0247 0 0 0 0 0 0.0221 0 0 0 0 0 0.018 0 0 0 0 -0.0066 0.0935 -0.0272 0 0 0 0 0.0163 0 0 0 0 0 0.0171 0 0 0 0 0 0.018 0 0 0 0 -4.47035e-06 36.3015 -2.38419e-05 31.8275 -3.36173e-06 6.6476 -18.9025 1.78814e-05 4.76837e-05 46.5316 27.278 -6.28004 -27.084 -2.38419e-05 -2.38419e-05 1.90432e-07 1.70755e-06 23.4328 -25.1083 -1.19209e-05 -1.19209e-05 5.62825 0.00447231 -0.585456 -0.0062 0.0497 0.0339 0 0 0 0 0.0215 0 0 0 0 0 0.022 0 0 0 0 0 0.017 0 0 0 0 0.0068 0.0873 0.0207 0 0 0 0 0.0267 0 0 0 0 0 0.0213 0 0 0 0 0 0.018 0 0 0 0 0.0067 0.0922 0.0055 0 0 0 0 0.0266 0 0 0 0 0 0.0228 0 0 0 0 0 0.015 0 0 0 0 0.0067 0.0925 -0.0113 0 0 0 0 0.0247 0 0 0 0 0 0.0221 0 0 0 0 0 0.018 0 0 0 0 0.0066 0.0935 -0.0272 0 0 0 0 0.0163 0 0 0 0 0 0.0171 0 0 0 0 0 0.018 0 0 0 0 -4.47035e-06 36.3015 -2.38419e-05 3.30508 47.6475 -2.44373 -1.58325e-06 19.5101 -4.76837e-05 1.00852e-05 -2.21981e-05 2.66804e-07 
2.01426 40.3056 -233.83 -0.847919 7.97101 0.744276 7.34715 -7.11058 2.48084 4.88061 5.78631 -3.84265 0 -46.3551 -7.15256e-05 -6.11044 -4.71894 -0.504593 -1.67638e-06 -38.0592 2.38419e-05 8.06049 -18.6196 7.02801 -7.39128 -7.12108 1.61533 -4.58554 3.34564 -3.09613 0 -46.461 0 6.38328 -1.57765 0.176472 -1.49012e-06 -37.1111 4.76837e-05 -0.293132 -7.87545 -0.206486 1.49012e-06 6.28707 -6.28705 -0.20598 -8.04518 0.171455 -4.47035e-06 36.3015 -2.38419e-05 -29.5054 1.286e-05 -6.38485 19.677 0 0 -48.8067 23.5273 7.80597 26.3017 0 -2.38419e-05 -9.42451e-07 0 -25.0542 23.7636 -2.38419e-05 0 -5.21192 -0.00634086 -0.539251 0.0062 0.0497 0.0339 0 0 0 0 0.0215 0 0 0 0 0 0.022 0 0 0 0 0 0.017 0 0 0 0 -0.0068 0.0873 0.0207 0 0 0 0 0.0267 0 0 0 0 0 0.0213 0 0 0 0 0 0.018 0 0 0 0 -0.0067 0.0922 0.0055 0 0 0 0 0.0266 0 0 0 0 0 0.0228 0 0 0 0 0 0.015 0 0 0 0 -0.0067 0.0925 -0.0113 0 0 0 0 0.0247 0 0 0 0 0 0.0221 0 0 0 0 0 0.018 0 0 0 0 -0.0066 0.0935 -0.0272 0 0 0 0 0.0163 0 0 0 0 0 0.0171 0 0 0 0 0 0.018 0 0 0 0 -4.47035e-06 36.3015 -2.38419e-05 31.8275 -3.36173e-06 6.6476 -18.9025 1.78814e-05 4.76837e-05 46.5316 27.278 -6.28004 -27.084 -2.38419e-05 -2.38419e-05 1.90432e-07 1.70755e-06 23.4328 -25.1083 -1.19209e-05 -1.19209e-05 5.62825 0.00447231 -0.585456 -0.0062 0.0497 0.0339 0 0 0 0 0.0215 0 0 0 0 0 0.022 0 0 0 0 0 0.017 0 0 0 0 0.0068 0.0873 0.0207 0 0 0 0 0.0267 0 0 0 0 0 0.0213 0 0 0 0 0 0.018 0 0 0 0 0.0067 0.0922 0.0055 0 0 0 0 0.0266 0 0 0 0 0 0.0228 0 0 0 0 0 0.015 0 0 0 0 0.0067 0.0925 -0.0113 0 0 0 0 0.0247 0 0 0 0 0 0.0221 0 0 0 0 0 0.018 0 0 0 0 0.0066 0.0935 -0.0272 0 0 0 0 0.0163 0 0 0 0 0 0.0171 0 0 0 0 0 0.018 0 0 0 0 -4.47035e-06 36.3015 -2.38419e-05 3.30508 47.6475 -2.44373 -1.58325e-06 19.5101 -4.76837e-05 1.00852e-05 -2.21981e-05 2.66804e-07 
2.07104 40.3228 -233.895 -0.798073 7.98739 0.792078 7.36079 -7.11773 2.47636 4.78476 5.71066 -3.81372 6.70552e-06 -46.3712 9.53674e-05 -6.11989 -4.69673 -0.503007 3.72529e-07 -38.0504 -2.38419e-05 8.05821 -18.691 7.03353 -7.40176 -7.12331 1.61335 -4.6757 3.28137 -3.08272 -1.49012e-06 -46.4949 2.38419e-05 6.41844 -1.59064 0.178912 -2.98023e-06 -37.0967 -7.15256e-05 -0.325653 -7.80776 -0.229071 1.86265e-06 6.28799 -6.28803 -0.210342 -8.00357 0.161519 -2.6077e-06 36.3015 2.38419e-05 -29.4855 1.20595e-05 -6.35446 19.6826 -1.78814e-05 0 -48.9639 23.584 7.82308 26.3435 -5.96046e-06 2.38419e-05 2.93469e-07 -3.41509e-06 -24.9671 23.6063 5.96046e-06 -2.38419e-05 -5.31244 -0.00541177 -0.604836 0.0062 0.0497 0.0339 0 0 0 0 0.0215 0 0 0 0 0 0.022 0 0 0 0 0 0.017 0 0 0 0 -0.0068 0.0873 0.0207 0 0 0 0 0.0267 0 0 0 0 0 0.0213 0 0 0 0 0 0.018 0 0 0 0 -0.0067 0.0922 0.0055 0 0 0 0 0.0266 0 0 0 0 0 0.0228 0 0 0 0 0 0.015 0 0 0 0 -0.0067 0.0925 -0.0113 0 0 0 0 0.0247 0 0 0 0 0 0.0221 0 0 0 0 0 0.018 0 0 0 0 -0.0066 0.0935 -0.0272 0 0 0 0 0.0163 0 0 0 0 0 0.0171 0 0 0 0 0 0.018 0 0 0 0 -2.6077e-06 36.3015 2.38419e-05 31.7815 -3.14829e-06 6.61461 -18.9117 -5.96046e-06 -2.38419e-05 46.5995 27.3606 -6.21423 -27.0503 3.57628e-05 -2.38419e-05 3.17945e-06 3.4151e-06 23.2357 -25.1037 1.19209e-05 -1.19209e-05 5.70784 0.00627735 -0.418274 -0.0062 0.0497 0.0339 0 0 0 0 0.0215 0 0 0 0 0 0.022 0 0 0 0 0 0.017 0 0 0 0 0.0068 0.0873 0.0207 0 0 0 0 0.0267 0 0 0 0 0 0.0213 0 0 0 0 0 0.018 0 0 0 0 0.0067 0.0922 0.0055 0 0 0 0 0.0266 0 0 0 0 0 0.0228 0 0 0 0 0 0.015 0 0 0 0 0.0067 0.0925 -0.0113 0 0 0 0 0.0247 0 0 0 0 0 0.0221 0 0 0 0 0 0.018 0 0 0 0 0.0066 0.0935 -0.0272 0 0 0 0 0.0163 0 0 0 0 0 0.0171 0 0 0 0 0 0.018 0 0 0 0 -2.6077e-06 36.3015 2.38419e-05 3.19395 47.6049 -2.35988 -2.04891e-06 19.5092 0 9.92512e-06 -6.83019e-06 -8.00413e-08 
